<?xml version="1.0" encoding="UTF-8" standalone="no"?>
<svg
   height="48"
   width="48"
   version="1.1"
   id="svg5"
   sodipodi:docname="icon.svg"
   inkscape:version="1.4.1 (93de688d07, 2025-03-30)"
   xmlns:inkscape="http://www.inkscape.org/namespaces/inkscape"
   xmlns:sodipodi="http://sodipodi.sourceforge.net/DTD/sodipodi-0.dtd"
   xmlns="http://www.w3.org/2000/svg"
   xmlns:svg="http://www.w3.org/2000/svg">
  <defs
     id="defs5" />
  <sodipodi:namedview
     id="namedview5"
     pagecolor="#ffffff"
     bordercolor="#000000"
     borderopacity="0.25"
     inkscape:showpageshadow="2"
     inkscape:pageopacity="0.0"
     inkscape:pagecheckerboard="0"
     inkscape:deskcolor="#d1d1d1"
     showgrid="false"
     inkscape:zoom="16.819952"
     inkscape:cx="0.47562562"
     inkscape:cy="22.294951"
     inkscape:window-width="2860"
     inkscape:window-height="1755"
     inkscape:window-x="9"
     inkscape:window-y="9"
     inkscape:window-maximized="1"
     inkscape:current-layer="svg5" />
  <ellipse
     cx="24.448576"
     cy="25.567892"
     fill="#ffffff"
     rx="20.241161"
     ry="18.833139"
     id="ellipse1"
     style="stroke-width:2.08106" />
  <g
     fill="#262626"
     id="g3"
     transform="matrix(2.1567566,0,0,2.0080114,-2.2628555,-0.71095229)">
    <path
       d="M 12.236,2.83 C 6.628,2.83 2.059,7.358 2.059,12.915 2.06,18.472 6.63,23 12.236,23 17.843,23 22.412,18.472 22.412,12.915 22.412,7.358 17.843,2.83 12.236,2.83 Z m 0,1.029 c 5.062,0 9.138,4.04 9.138,9.056 0,4.991 -4.076,9.056 -9.138,9.056 -5.063,0 -9.138,-4.065 -9.138,-9.056 0,-5.017 4.075,-9.056 9.138,-9.056 z"
       id="path1" />
    <path
       d="m 11.717,2.058 v 1.286 h 1.038 V 2.058 Z"
       id="path2" />
    <path
       d="m 10.315,1.003 c -0.235553,-0.0231562 -0.4615449,0.099141 -0.571,0.309 -0.1296802,0.1947179 -0.1296802,0.4482821 0,0.643 0.1141328,0.2078014 0.332922,0.3363883 0.57,0.335 h 3.843 c 0.237435,0.00176 0.456696,-0.1268817 0.571,-0.335 0.12968,-0.1947179 0.12968,-0.4482821 0,-0.643 C 14.618545,1.1021407 14.392553,0.97984376 14.157,1.003 Z m 9.631,3.473 c -0.208,0 -0.39,0.103 -0.545,0.232 l -0.467,0.489 c -0.208,0.18 -0.286,0.463 -0.208,0.746 0.06395,0.2691299 0.275292,0.4785289 0.545,0.54 0.286,0.077 0.571,0 0.753,-0.206 L 20.517,5.814 C 20.751,5.583 20.803,5.248 20.699,4.94 20.569,4.657 20.258,4.476 19.946,4.476 Z"
       id="path3"
       sodipodi:nodetypes="cccccccccscccccccs" />
  </g>
  <path
     id="path3-6"
     d="m 6.0625885,9.8494966 c 0,0.4176664 0.2230563,0.7829674 0.5012773,1.0942094 l 1.0573163,0.937334 c 0.3882162,0.417666 0.9987806,0.572345 1.6091428,0.415721 0.5804477,-0.128413 1.0300481,-0.552633 1.1626261,-1.09421 0.16607,-0.574291 0.002,-1.144472 -0.4423031,-1.5099302 L 8.948093,8.70038 C 8.4498822,8.2305053 7.7294243,8.1268116 7.0651433,8.3356448 6.4547811,8.5966863 6.0625885,9.2229971 6.0625885,9.8494966 Z"
     style="stroke-width:2.08106" />
  <path
     style="fill:#000000;stroke-width:0.037372"
     d="M 22.957238,45.428176 C 18.978683,45.207155 15.323144,44.087152 12.055573,42.088068 6.830057,38.891119 3.3170158,33.794698 2.4266853,28.119293 2.2644087,27.084859 2.2156552,26.414232 2.2156552,25.216435 c 0,-1.543191 0.1252408,-2.703745 0.4436222,-4.110879 C 4.2827365,13.930454 10.088516,8.0468417 17.672774,5.8907859 c 1.489485,-0.4234318 3.288794,-0.7420635 4.697635,-0.831884 0.181059,-0.011546 0.403291,-0.029476 0.493826,-0.039849 l -0.506372,0.013755 -0.01467,-0.6443683 -0.01898,-0.521688 -0.951164,0.01257 C 19.751683,3.8673138 19.712674,3.8653459 19.494719,3.7842042 19.202235,3.6753248 18.891828,3.4073211 18.729216,3.1232714 18.622734,2.9372677 18.596505,2.8466476 18.582101,2.6149879 18.565493,2.3478897 18.571952,2.3191614 18.704935,2.0686468 18.866776,1.7637666 19.082373,1.5468487 19.3418,1.4278777 l 0.181836,-0.083391 h 4.609054 4.609054 l 0.195208,0.095939 c 0.248178,0.1219687 0.476102,0.3519408 0.620859,0.6264341 0.09677,0.1835082 0.113488,0.2576765 0.113488,0.5036788 0,0.2459689 -0.01682,0.3203682 -0.113725,0.504845 -0.157616,0.2998953 -0.484891,0.5969016 -0.777397,0.7055007 -0.229921,0.085363 -0.247667,0.086288 -1.887876,0.098439 l -1.091498,0.042289 0.01618,0.4798236 -0.01618,0.6299286 0.07751,0.0621 c 0.06923,0.00938 -0.131886,-0.039726 0.183605,-0.017409 1.883021,0.1332296 4.096796,0.6079369 5.971994,1.2805958 2.014126,0.7224954 4.097635,1.8323743 5.747265,3.0615542 0.289985,0.2160751 0.555499,0.4093408 0.59003,0.4294797 0.07292,0.042528 0.04534,0.065278 0.734309,-0.6056363 0.687322,-0.6693096 0.939406,-0.8329037 1.41871,-0.9206977 0.609716,-0.1116816 1.419647,0.2360989 1.741816,0.7479244 0.198228,0.3149134 0.254942,0.7577 0.146638,1.1447981 -0.107385,0.383822 -0.227171,0.531896 -0.955913,1.181585 -0.378895,0.337794 -0.688903,0.629557 -0.688903,0.648362 0,0.01882 0.128176,0.17488 0.284824,0.346835 1.684466,1.848992 3.105143,4.246409 3.949895,6.665522 0.720466,2.0632 1.035014,3.945642 1.034775,6.192726 -3.39e-4,3.188222 -0.748996,6.122442 -2.286072,8.959815 -2.645852,4.88413 -7.222775,8.535381 -12.841486,10.244332 -1.589875,0.483564 -3.31192,0.803649 -5.050382,0.938747 -0.682754,0.05305 -2.247341,0.07257 -2.902207,0.03618 z m 3.324388,-2.107355 c 3.598424,-0.380932 6.926107,-1.603536 9.760918,-3.586202 2.047873,-1.432285 3.812697,-3.267222 5.119411,-5.322795 1.322344,-2.080161 2.200455,-4.454151 2.527613,-6.833435 0.208925,-1.519433 0.20899,-3.199799 2.1e-4,-4.723906 -0.466084,-3.402338 -1.98217,-6.600438 -4.427522,-9.339629 C 38.774823,12.968849 37.540821,11.822457 36.935618,11.353399 33.762123,8.8938041 30.072758,7.4610665 25.972442,7.0959299 25.234825,7.0302444 23.693109,7.0104516 22.91265,7.0566475 18.957606,7.2907491 15.295138,8.5376044 12.203377,10.702526 10.599992,11.825252 9.1580243,13.197248 8.0104133,14.692025 3.6127821,20.41999 3.2022116,28.085968 6.9648927,34.213491 c 0.3281654,0.534418 1.1247022,1.64176 1.5123814,2.102506 0.8262256,0.98195 1.9152579,2.036558 2.8751209,2.784237 3.194396,2.488261 6.998502,3.93727 11.211671,4.270602 0.652354,0.05161 3.064039,0.01908 3.71756,-0.05002 z"
     id="path21"
     sodipodi:nodetypes="csssssscccccssssscccssscssccccsssssssssscsssssccsssscssssssssssss" />
  <path
     id="path3-6-5"
     d="m 24.028903,8.2728567 c 0,0.3110418 0.02114,0.5830867 0.04756,0.8148727 l 0.100311,0.6980454 c 0.03684,0.3110422 0.09475,0.4262332 0.152655,0.3095932 0.05506,-0.09563 0.09772,-0.4115538 0.110297,-0.8148733 0.01574,-0.4276826 1.87e-4,-0.8523041 -0.04197,-1.1244657 l -0.09512,-0.7389352 c -0.04725,-0.3499221 -0.115602,-0.4271444 -0.178622,-0.2716233 -0.05791,0.1944016 -0.09511,0.6608233 -0.09511,1.1273862 z"
     style="stroke-width:0.553134"
     sodipodi:nodetypes="scccccccs" />
  <path
     id="path3-6-5-5"
     d="m 24.219359,41.377461 c 0,0.311041 0.02114,0.583086 0.04756,0.814873 l 0.100311,0.698045 c 0.03684,0.311041 0.09475,0.426233 0.152655,0.309593 0.05506,-0.09562 0.09772,-0.411554 0.110296,-0.814873 0.01574,-0.427682 1.88e-4,-0.852304 -0.04197,-1.124466 l -0.09511,-0.738934 c -0.04725,-0.349922 -0.115602,-0.427144 -0.178623,-0.271624 -0.05791,0.194396 -0.09511,0.660823 -0.09511,1.127386 z"
     style="stroke-width:0.553134"
     sodipodi:nodetypes="scccccccs" />
  <path
     id="path3-6-5-5-2"
     d="m 42.340325,23.986235 c -0.334081,0 -0.626279,0.01968 -0.875235,0.04428 l -0.749754,0.09339 c -0.334081,0.0343 -0.457806,0.08821 -0.332526,0.142127 0.102704,0.05126 0.44204,0.09098 0.875235,0.10269 0.459364,0.01466 0.91544,1.75e-4 1.207762,-0.03908 l 0.793672,-0.08855 c 0.375843,-0.044 0.458785,-0.10763 0.291744,-0.166304 -0.208795,-0.05391 -0.709773,-0.08855 -1.210898,-0.08855 z"
     style="stroke-width:0.553134"
     sodipodi:nodetypes="scccccccs" />
  <path
     id="path3-6-5-5-1"
     d="m 6.5939161,24.259017 c -0.3340816,0 -0.626279,0.01968 -0.8752356,0.04428 l -0.7497533,0.09339 c -0.3340816,0.0343 -0.4578061,0.08821 -0.3325266,0.142127 0.1027048,0.05127 0.4420403,0.09098 0.8752356,0.10269 0.4593633,0.01466 0.9154397,1.75e-4 1.2077622,-0.03908 l 0.7936713,-0.08855 C 7.8889126,24.469874 7.971855,24.406245 7.8048142,24.34757 7.5960186,24.29366 7.0950407,24.25902 6.5939161,24.25902 Z"
     style="stroke-width:0.553134"
     sodipodi:nodetypes="scccccccs" />
  <path
     sodipodi:type="spiral"
     style="fill:none;fill-rule:evenodd;stroke:#000000"
     id="path25"
     sodipodi:cx="8.7677174"
     sodipodi:cy="6.2198339"
     sodipodi:expansion="1"
     sodipodi:revolution="3"
     sodipodi:radius="17.758913"
     sodipodi:argument="-17.428415"
     sodipodi:t0="0"
     d="M 8.7677174,6.2198339 C 8.9004745,7.100285 7.6463845,6.8331713 7.3043497,6.4404849 6.3774564,5.376329 7.2470489,3.8249481 8.3264152,3.2930985 10.257148,2.3417442 12.455853,3.6859083 13.15782,5.5578806 14.187986,8.3050753 12.315736,11.226879 9.6503217,12.073305 6.0977442,13.201457 2.431982,10.783151 1.4508789,7.3230893 0.21626079,2.9689542 3.1883036,-1.4494167 7.4438109,-2.5603723 12.5978,-3.9058883 17.773234,-0.37616961 19.011291,4.6752763 20.470299,10.62823 16.380625,16.563336 10.532926,17.926775 3.7815256,19.50092 -2.9149191,14.849856 -4.4025918,8.2056936 -6.0929802,0.65617373 -0.87956466,-6.8027413 6.5612066,-8.413843 14.908627,-10.221256 23.130817,-4.4448122 24.864762,3.792672 26.789769,12.937841 20.449804,21.923898 11.41553,23.780246"
     transform="matrix(0.96227,0,0,0.96759193,14.283482,18.390038)" />
  <path
     d="m 23.573393,23.344103 c -0.336454,0.0502 -0.616832,0.154617 -0.785059,0.361442 -0.224303,0.154617 -0.334297,0.41365 -0.334297,0.722884 v 9.608335 c 0,0.361442 0.222146,0.722884 0.560757,0.879509 a 1.0244594,0.95380543 0 0 0 1.117199,0 1.0719081,0.99798168 0 0 0 0.560757,-0.879509 V 24.428429 A 1.1236702,1.046174 0 0 0 24.356296,23.653337 C 24.131993,23.49872 23.853772,23.344103 23.573393,23.344103 Z"
     fill="#aa0000"
     id="path26"
     style="stroke-width:2.08106" />
  <path
     d="m 15.083006,17.508193 c 0,0.261042 0.109994,0.520075 0.33214,0.728909 l 7.38042,6.777038 c 0.277975,0.254628 0.669886,0.370285 1.054654,0.311242 0.388216,-0.102409 0.720356,-0.415659 0.776432,-0.781117 0.109995,-0.365458 0,-0.728908 -0.278222,-0.989949 l -7.586918,-6.63699 c -0.333777,-0.275084 -0.597216,-0.547733 -1.014225,-0.40109 -0.442135,0.156625 -0.664281,0.574291 -0.664281,0.989949 z"
     fill="#aa0000"
     id="path27"
     sodipodi:nodetypes="scccccccss"
     style="stroke-width:2.08106" />
</svg>
